<?xml version="1.0" encoding="UTF-8" standalone="no"?>
<!-- Created with Inkscape (http://www.inkscape.org/) -->

<svg
   width="512"
   height="512"
   viewBox="0 0 512 512"
   version="1.1"
   id="svg1"
   inkscape:version="1.4.3 (0d15f75, 2025-12-25)"
   sodipodi:docname="favicon.svg"
   xmlns:inkscape="http://www.inkscape.org/namespaces/inkscape"
   xmlns:sodipodi="http://sodipodi.sourceforge.net/DTD/sodipodi-0.dtd"
   xmlns="http://www.w3.org/2000/svg"
   xmlns:svg="http://www.w3.org/2000/svg">
  <sodipodi:namedview
     id="namedview1"
     pagecolor="#ffffff"
     bordercolor="#000000"
     borderopacity="0.25"
     inkscape:showpageshadow="2"
     inkscape:pageopacity="0.0"
     inkscape:pagecheckerboard="0"
     inkscape:deskcolor="#d1d1d1"
     inkscape:document-units="px"
     inkscape:zoom="1.5351562"
     inkscape:cx="252.0916"
     inkscape:cy="266.42239"
     inkscape:window-width="1024"
     inkscape:window-height="997"
     inkscape:window-x="2073"
     inkscape:window-y="52"
     inkscape:window-maximized="0"
     inkscape:current-layer="layer1" />
  <defs
     id="defs1" />
  <g
     inkscape:label="Layer 1"
     inkscape:groupmode="layer"
     id="layer1">
    <g
       id="g1"
       transform="matrix(2.7055715,0,0,2.8338768,-15.835199,-128.0602)">
      <path
         style="fill:#6c5ce7;fill-opacity:1;stroke-width:0.566056"
         d="m 85.063279,166.85829 c -0.97134,-0.7507 -2.48051,-2.07006 -3.35371,-2.93188 -0.8732,-0.86183 -2.04511,-2.17832 -2.6042,-2.9255 -0.55909,-0.7472 -1.307988,-1.84319 -1.664202,-2.43557 -0.356219,-0.59237 -0.89324,-1.7138 -1.193362,-2.49202 -0.30012,-0.77819 -0.666643,-1.99025 -0.814552,-2.6934 -0.225972,-1.07404 -0.268709,-3.77491 -0.267291,-16.88977 0,-12.41078 0.05434,-16.01981 0.25847,-17.60387 0.141282,-1.09587 0.340424,-2.40007 0.442483,-2.89819 0.102052,-0.49815 0.384349,-1.56261 0.627304,-2.36556 0.242883,-0.80289 0.630699,-1.9033 0.861649,-2.44535 0.231008,-0.54201 0.701457,-1.51534 1.045511,-2.16291 0.34405,-0.64756 0.86974,-1.5442 1.16828,-1.99251 0.29853,-0.44832 0.98839,-1.38571 1.533,-2.08309 0.5446,-0.69739 1.6595,-1.92006 2.47756,-2.71707 0.81813,-0.79701 2.14734,-1.93552 2.95385,-2.529994 0.80647,-0.59447 2.26457,-1.51494 3.24023,-2.04545 0.9756,-0.53056 2.51917,-1.24379 3.43018,-1.58496 0.91096,-0.34121 1.99309,-0.67423 2.40467,-0.74005 l 0.74832,-0.11968 v 6.263984 6.26392 l -0.40755,0.28733 c -0.22417,0.15804 -0.93394,0.63053 -1.57732,1.05003 -0.64332,0.41946 -1.6903,1.24787 -2.32655,1.84093 -0.63624,0.59301 -1.50634,1.57115 -1.93354,2.17366 -0.4272,0.60247 -1.03141,1.60358 -1.34268,2.22472 -0.31133,0.62114 -0.6826,1.47702 -0.82509,1.90195 -0.14247,0.42494 -0.3865,1.32787 -0.54222,2.00656 -0.249,1.08535 -0.28308,4.09877 -0.28308,25.03165 0,13.08874 -0.0653,23.83806 -0.14502,23.88737 -0.0798,0.0493 -0.93977,-0.52463 -1.91112,-1.27528 z"
         id="path58" />
      <path
         style="fill:#6c5ce7;fill-opacity:1;stroke-width:0.566056"
         d="m 86.478649,191.81898 c -0.0959,-0.0885 -0.57341,-0.37987 -1.06113,-0.64733 -0.48771,-0.26753 -1.83266,-1.08919 -2.98878,-1.82598 -1.15611,-0.73684 -2.60068,-1.68964 -3.21015,-2.11727 -0.60954,-0.42767 -1.787842,-1.26372 -2.61847,-1.85788 -0.830635,-0.59407 -2.492008,-1.89448 -3.691992,-2.88966 -1.19992,-0.99517 -3.232067,-2.83213 -4.515882,-4.08215 -1.283812,-1.25004 -3.081441,-3.16941 -3.994712,-4.26529 -0.91328,-1.0959 -2.033732,-2.52235 -2.489915,-3.16992 -0.456243,-0.64756 -1.177792,-1.748 -1.603528,-2.44537 -0.425729,-0.69737 -1.032821,-1.76248 -1.349134,-2.36691 -0.316257,-0.60436 -0.828258,-1.70705 -1.137663,-2.45034 -0.309464,-0.7433 -0.68119,-1.716 -0.826104,-2.16153 -0.144913,-0.44561 -0.390347,-1.25847 -0.545391,-1.80643 -0.154986,-0.54792 -0.365505,-1.40381 -0.467673,-1.90193 -0.102238,-0.49814 -0.289939,-1.59855 -0.417133,-2.44537 -0.175529,-1.1684 -0.2313,-5.79811 -0.2313,-19.20062 0,-13.2995 0.05813,-18.17541 0.235435,-19.74406 0.12946,-1.14572 0.317618,-2.53142 0.41809,-3.07935 0.100461,-0.54795 0.269045,-1.44458 0.374559,-1.99252 0.105524,-0.54795 0.436432,-1.8929 0.735423,-2.98878 0.298991,-1.09588 0.70129,-2.44083 0.894027,-2.98878 0.192679,-0.54794 0.427603,-1.13777 0.52196,-1.31082 0.09436,-0.17298 0.171579,-0.39839 0.171579,-0.50084 0,-0.1025 0.521164,-1.27544 1.158148,-2.60658 0.63704,-1.331084 1.744644,-3.388074 2.461382,-4.570964 0.716746,-1.18294 1.885142,-2.92515 2.596388,-3.8716 0.711254,-0.94644 1.536278,-2.0061 1.833405,-2.35479 0.297061,-0.34869 1.643828,-1.7349 2.992794,-3.08047 1.348967,-1.34556 3.402624,-3.15985 4.563717,-4.03174 1.161151,-0.8719 2.832148,-2.03838 3.713327,-2.5922 0.881233,-0.55381 2.539673,-1.47608 3.685363,-2.04949 1.1457,-0.5734 2.85745,-1.33469 3.8039,-1.69176 0.94645,-0.35707 2.37291,-0.85448 3.16992,-1.10537 0.79701,-0.25089 1.97893,-0.58214 2.6265,-0.73611 0.64757,-0.15398 1.93925,-0.410345 2.87042,-0.569716 0.93116,-0.15936 1.80849,-0.245455 1.9496,-0.191301 0.21574,0.08278 0.24901,1.084107 0.20893,6.288937 l -0.0476,6.19047 -1.4491,0.33181 c -0.79701,0.1825 -1.77515,0.42524 -2.17366,0.53945 -0.3985,0.11422 -1.29514,0.4076 -1.99252,0.65197 -0.69738,0.24437 -1.43099,0.51306 -1.63024,0.59708 -0.19925,0.084 -1.01437,0.46096 -1.81138,0.83763 -0.79701,0.37668 -1.93818,0.97189 -2.53593,1.3227 -0.59776,0.3508 -1.65741,1.03954 -2.3548,1.53053 -0.69738,0.491 -2.00157,1.52292 -2.89821,2.29327 -0.89663,0.77029 -1.834017,1.63454 -2.083082,1.92062 -0.24906,0.28603 -0.952897,1.09012 -1.564015,1.78676 -0.611113,0.69665 -1.591524,1.959524 -2.178635,2.806344 -0.587119,0.84682 -1.29446,1.92963 -1.571885,2.40631 -0.27748,0.47662 -0.771814,1.37325 -1.098597,1.99251 -0.32673,0.61921 -0.927434,1.98176 -1.334823,3.02784 -0.407444,1.04607 -0.981765,2.83934 -1.276287,3.98504 -0.294516,1.14571 -0.646494,2.65366 -0.782228,3.35106 -0.198299,1.01911 -0.246701,4.89382 -0.246701,19.74407 0,14.78651 0.04811,18.67503 0.241717,19.47234 0.132986,0.54792 0.444814,1.64833 0.692972,2.44535 0.248212,0.79701 0.770516,2.11865 1.160696,2.93692 0.390185,0.81835 1.250079,2.28556 1.910893,3.26049 0.660758,0.97498 1.711134,2.38401 2.334132,3.13119 0.623007,0.7472 1.978826,2.17367 3.01295,3.16991 1.034127,0.99627 2.857673,2.59437 4.052343,3.55133 1.19472,0.95693 3.06881,2.37547 4.1647,3.15231 1.09589,0.77682 2.05297,1.50181 2.12685,1.61112 0.0739,0.10921 0.11467,3.16714 0.0906,6.79523 -0.0289,4.35766 -0.10754,6.61775 -0.2317,6.65908 -0.10335,0.0345 -0.26638,-0.0106 -0.36227,-0.0983 z"
         id="path49" />
      <path
         style="fill:#6c5ce7;fill-opacity:1;stroke-width:0.566056"
         d="m 98.168849,219.02184 c -0.7472,-0.2436 -1.80685,-0.61048 -2.3548,-0.81546 -0.54794,-0.2049 -1.81138,-0.69912 -2.80764,-1.09821 -0.99626,-0.39901 -2.25969,-0.92878 -2.80763,-1.17728 -0.54795,-0.24837 -2.30781,-1.08196 -3.91083,-1.85225 -1.60302,-0.7703 -3.72233,-1.85032 -4.70959,-2.40008 -0.98726,-0.5497 -2.20259,-1.22284 -2.70071,-1.49584 -0.49813,-0.27297 -1.272496,-0.70652 -1.720814,-0.96345 -0.448318,-0.25685 -2.238183,-1.36044 -3.977454,-2.45226 -1.739321,-1.09185 -4.120716,-2.66692 -5.292057,-3.50014 -1.171399,-0.83325 -2.676314,-1.92873 -3.344371,-2.43435 -0.668066,-0.50565 -2.036166,-1.58279 -3.040295,-2.39366 -1.004124,-0.81088 -2.109406,-1.7206 -2.456229,-2.02163 -0.34682,-0.30096 -1.161941,-1.0447 -1.811381,-1.65271 -0.649439,-0.608 -1.415986,-1.30086 -1.703433,-1.53966 -0.287442,-0.23883 -1.66409,-1.6555 -3.059308,-3.14818 -1.395158,-1.49264 -3.174924,-3.50208 -3.955027,-4.46534 -0.78011,-0.96332 -2.16291,-2.79877 -3.072892,-4.07879 -0.909985,-1.28002 -1.81167,-2.61258 -2.003758,-2.96125 -0.192096,-0.3487 -0.601168,-1.04154 -0.909073,-1.53969 -0.307905,-0.49812 -1.026453,-1.80231 -1.596788,-2.89819 -0.570329,-1.0959 -1.36864,-2.80764 -1.774021,-3.80391 -0.405385,-0.99626 -0.984122,-2.54499 -1.286074,-3.44161 -0.301949,-0.89665 -0.719831,-2.28236 -0.928616,-3.07937 -0.208795,-0.79699 -0.499564,-2.07033 -0.646163,-2.8297 -0.14661,-0.75932 -0.386056,-2.38955 -0.532101,-3.62276 -0.216907,-1.83147 -0.266205,-5.67711 -0.269136,-20.99694 -0.0029,-15.18111 0.04845,-19.37477 0.2696,-22.0083 0.150241,-1.78943 0.350777,-3.70179 0.445619,-4.24973 0.09481,-0.54794 0.262976,-1.56685 0.373648,-2.26422 0.110693,-0.69738 0.319777,-1.7978 0.464664,-2.44537 0.144887,-0.64757 0.353248,-1.5442 0.463027,-1.99252 0.109765,-0.44832 0.400745,-1.54872 0.646611,-2.44536 0.245852,-0.89663 0.556275,-1.956294 0.689815,-2.354794 0.133542,-0.39851 0.526047,-1.53968 0.872225,-2.53594 0.346168,-0.99625 1.009311,-2.70042 1.473634,-3.78701 0.464315,-1.0866 1.323382,-2.9315 1.909022,-4.09978 0.585645,-1.16829 1.490172,-2.84689 2.010061,-3.73022 0.519897,-0.88333 1.598458,-2.58421 2.396819,-3.77972 0.798358,-1.19551 2.023731,-2.90726 2.72304,-3.8039 0.699305,-0.89663 2.062368,-2.52687 3.028963,-3.622756 0.966601,-1.095885 2.478593,-2.688143 3.359939,-3.538352 0.881413,-0.850209 2.173151,-2.032139 2.870534,-2.626502 0.69738,-0.594371 1.308723,-1.123371 1.358532,-1.175571 0.04981,-0.05217 0.620396,-0.506991 1.26797,-1.010658 0.647565,-0.50367 1.992516,-1.492817 2.988775,-2.198112 0.996262,-0.705293 2.789528,-1.871788 3.985038,-2.592208 1.195507,-0.720427 3.127406,-1.780818 4.29308,-2.356435 1.165737,-0.575615 3.122029,-1.453338 4.347316,-1.950489 1.225339,-0.497152 3.002249,-1.166845 3.948689,-1.488211 0.94645,-0.321362 1.96536,-0.6476 2.26424,-0.724966 0.29887,-0.07737 1.15475,-0.304559 1.90194,-0.504859 0.7472,-0.200287 2.17365,-0.530901 3.16992,-0.734665 0.99626,-0.203759 2.60521,-0.495495 3.57549,-0.648286 0.97028,-0.152813 2.21334,-0.27782 2.76236,-0.27782 h 0.99824 v 7.058007 c 0,6.64989 -0.0191,7.06826 -0.33098,7.235127 -0.18199,0.09741 -0.77294,0.228622 -1.31325,0.2916 -0.54024,0.06298 -1.63437,0.237768 -2.43138,0.388439 -0.797,0.150692 -2.28002,0.471694 -3.29558,0.713345 -1.0155,0.241664 -2.9718,0.805253 -4.34731,1.252428 -1.37546,0.447175 -2.66386,0.885142 -2.86312,0.973265 -0.19925,0.08811 -1.17739,0.506445 -2.17365,0.92962 -0.99626,0.423174 -2.667257,1.218995 -3.713328,1.768488 -1.046077,0.549492 -2.772828,1.549751 -3.837187,2.22279 -1.064411,0.673051 -2.613137,1.735181 -3.441618,2.360311 -0.828539,0.62513 -1.995461,1.54208 -2.59322,2.03765 -0.597756,0.49558 -2.064975,1.88956 -3.260485,3.09774 -1.195507,1.20817 -2.866512,3.07608 -3.713325,4.15089 -0.846821,1.07483 -2.220924,3.02859 -3.053482,4.34171 -0.83261,1.31312 -1.981369,3.32884 -2.552743,4.47941 -0.571438,1.15057 -1.369971,2.90308 -1.774473,3.89447 -0.404504,0.99139 -0.986125,2.517314 -1.29248,3.390844 -0.306404,0.8736 -0.754948,2.34082 -0.996765,3.26049 -0.24185,0.91973 -0.645379,2.69109 -0.896721,3.93641 -0.251339,1.24532 -0.605446,3.4054 -0.786881,4.80015 -0.300968,2.31372 -0.329876,4.21063 -0.329876,21.64602 0,17.50404 0.02744,19.28515 0.325794,21.19315 0.179188,1.14568 0.529631,2.89819 0.778759,3.89446 0.24914,0.99626 0.563841,2.13744 0.69936,2.53595 0.135504,0.3985 0.420475,1.17285 0.633316,1.7208 0.212771,0.54796 0.515393,1.28156 0.672468,1.63023 0.157081,0.3487 0.718838,1.50674 1.248439,2.57341 0.529546,1.06669 1.541601,2.85135 2.248998,3.96584 0.707405,1.11459 1.873197,2.80947 2.590672,3.76651 0.717475,0.95695 2.252507,2.79959 3.411167,4.09472 1.158718,1.29513 2.7083,2.92902 3.443497,3.63079 0.735246,0.70182 2.111159,1.95499 3.057604,2.78485 0.946445,0.82983 2.576687,2.17839 3.622764,2.9968 1.046069,0.8184 3.00236,2.26057 4.347308,3.20474 1.344956,0.94418 3.342002,2.28737 4.437888,2.98482 1.09588,0.69748 3.09293,1.91015 4.43788,2.69475 1.34495,0.78461 4.27938,2.34211 6.52097,3.4611 2.24158,1.11891 4.29976,2.09023 4.57373,2.1583 l 0.49813,0.12406 v -22.74612 c 0,-21.48796 0.0175,-22.75393 0.31699,-22.88827 0.17436,-0.0782 2.84387,-0.10152 5.932271,-0.0514 l 5.61528,0.0907 0.0459,22.77811 c 0.0374,18.41127 0.0906,22.77811 0.27878,22.77811 0.12803,0 1.88022,-0.81462 3.89374,-1.81024 l 3.66096,-1.81027 v -24.97882 c 0,-23.01397 -0.0233,-24.98776 -0.29791,-25.0931 -0.16386,-0.0628 -4.52585,-0.10814 -9.6932,-0.10072 -5.167411,0.008 -9.475731,-0.0363 -9.574111,-0.0968 -0.11141,-0.0689 -0.17882,-2.21493 -0.17882,-5.69293 0,-4.48421 0.0487,-5.62258 0.24623,-5.78677 0.1795,-0.14897 4.45996,-0.19191 15.804291,-0.15798 l 15.55805,0.0464 0.0459,27.12541 c 0.0402,23.67452 0.0797,27.12541 0.3111,27.12541 0.14587,0 1.47017,-0.90824 2.94288,-2.01827 1.47276,-1.11003 3.14665,-2.42255 3.71983,-2.91659 l 1.04211,-0.8984 -0.0459,-28.1938 -0.0459,-28.19385 -19.74404,-0.0907 -19.744041,-0.0906 -0.0475,-5.75114 -0.0476,-5.75114 h 25.814761 25.81472 v 27.35183 c 0,16.17093 0.0669,27.35186 0.1637,27.35186 0.09,0 0.56991,-0.6333 1.06645,-1.40733 0.49649,-0.77403 1.08722,-1.73178 1.31274,-2.12838 0.22557,-0.39657 0.74418,-1.37346 1.1525,-2.17092 0.40834,-0.79741 0.88008,-1.77557 1.04832,-2.17368 0.16832,-0.39803 0.48132,-1.17206 0.69568,-1.72001 0.21444,-0.54795 0.49955,-1.3223 0.63375,-1.72081 0.13413,-0.3985 0.41664,-1.37664 0.62766,-2.17365 0.211,-0.79701 0.46173,-1.89742 0.55723,-2.44537 0.0954,-0.54793 0.25632,-1.56577 0.35769,-2.26184 0.11451,-0.78813 0.18475,-7.91228 0.18607,-18.88365 v -17.61805 h 5.97044 5.97019 v 17.89468 c 0,15.16397 -0.0429,18.2114 -0.28127,19.97048 -0.1548,1.14169 -0.39699,2.64635 -0.53843,3.34375 -0.14155,0.69737 -0.4678,2.07346 -0.72523,3.05795 -0.25739,0.98447 -0.59408,2.16639 -0.74806,2.6265 -0.154,0.46008 -0.69212,1.85541 -1.19578,3.10073 -0.50369,1.24533 -1.33765,3.08791 -1.85321,4.09464 -0.51556,1.00668 -1.44272,2.67768 -2.06033,3.71334 -0.61759,1.03557 -1.83346,2.86649 -2.70202,4.06863 -0.8685,1.20212 -2.06815,2.79082 -2.66591,3.53044 -0.59776,0.73954 -1.33137,1.63023 -1.63023,1.97928 -0.29887,0.34896 -1.19518,1.32789 -1.99174,2.1754 -0.7965,0.8475 -1.97857,2.07069 -2.62676,2.71826 -0.64819,0.64757 -1.66749,1.62944 -2.26508,2.18192 -0.59759,0.55254 -1.69783,1.53346 -2.44503,2.17988 -0.74719,0.64643 -2.14858,1.80407 -3.11415,2.57261 -0.96553,0.76849 -3.08484,2.34404 -4.70959,3.50117 -1.6247,1.15714 -3.72833,2.61145 -4.67477,3.23179 -0.94646,0.62034 -2.73972,1.7396 -3.98504,2.4872 -1.24533,0.74752 -2.79406,1.65202 -3.44162,2.00984 -0.64757,0.35784 -1.78874,0.98505 -2.53594,1.39374 -0.7472,0.40871 -2.74424,1.42329 -4.43788,2.25471 -1.69364,0.83141 -3.52766,1.71455 -4.0756,1.96241 -0.54795,0.24784 -1.81138,0.77724 -2.80765,1.17628 -0.99626,0.39906 -2.25969,0.89129 -2.80763,1.09389 -0.54795,0.20251 -1.44458,0.50813 -1.99252,0.67903 -0.54794,0.17097 -1.18351,0.38199 -1.41236,0.46904 -0.22886,0.0869 -1.00323,0.14844 -1.72082,0.13651 -0.840371,-0.0133 -1.788231,-0.17946 -2.663241,-0.46475 z"
         id="path45" />
    </g>
  </g>
</svg>
