<?xml version="1.0" encoding="UTF-8"?>
<!-- Govena Icon Mark — Standalone -->
<!-- Usage: favicon, app icons, social avatars -->
<!-- Native dimensions: 48×48 -->
<svg width="48" height="48" viewBox="0 0 48 48" fill="none" xmlns="http://www.w3.org/2000/svg">
  <defs>
    <linearGradient id="shieldGradIcon" x1="24" y1="4" x2="24" y2="44" gradientUnits="userSpaceOnUse">
      <stop offset="0%" stop-color="#6C5CE7"/>
      <stop offset="100%" stop-color="#5849C9"/>
    </linearGradient>
  </defs>
  <path d="M24 4L8 10V20C8 30 15 38 24 44C33 38 40 30 40 20V10L24 4Z"
    fill="url(#shieldGradIcon)" stroke="#00B4D8" stroke-width="1.5" stroke-linejoin="round"/>
  <circle cx="24" cy="22" r="2.5" fill="#FFFFFF"/>
  <circle cx="18" cy="14" r="1.8" fill="#A29BFE"/>
  <circle cx="30" cy="14" r="1.8" fill="#A29BFE"/>
  <circle cx="14" cy="22" r="1.8" fill="#A29BFE"/>
  <circle cx="34" cy="22" r="1.8" fill="#A29BFE"/>
  <circle cx="18" cy="30" r="1.8" fill="#00B4D8"/>
  <circle cx="30" cy="30" r="1.8" fill="#00B4D8"/>
  <line x1="18" y1="14" x2="24" y2="22" stroke="#A29BFE" stroke-width="1" opacity="0.6"/>
  <line x1="30" y1="14" x2="24" y2="22" stroke="#A29BFE" stroke-width="1" opacity="0.6"/>
  <line x1="14" y1="22" x2="24" y2="22" stroke="#A29BFE" stroke-width="1" opacity="0.6"/>
  <line x1="34" y1="22" x2="24" y2="22" stroke="#A29BFE" stroke-width="1" opacity="0.6"/>
  <line x1="24" y1="22" x2="18" y2="30" stroke="#00B4D8" stroke-width="1" opacity="0.6"/>
  <line x1="24" y1="22" x2="30" y2="30" stroke="#00B4D8" stroke-width="1" opacity="0.6"/>
</svg>
